<?xml version="1.0" encoding="UTF-8"?>
<!-- Generated by Pixelmator Pro 3.6.13 -->
<svg width="400" height="400" viewBox="0 0 400 400" xmlns="http://www.w3.org/2000/svg">
    <path id="Shape" fill="#ffffff" fill-rule="evenodd" stroke="none" d="M 200.729767 397.960846 C 183.119827 397.932404 175.680374 397.566315 173.5 396.62088 C 171.850006 395.905396 168.024994 395.049683 165 394.719238 C 161.975006 394.388794 156.350006 393.269592 152.5 392.232086 C 148.649994 391.194611 141 388.723114 135.5 386.739899 C 130 384.756714 120.099998 380.372681 113.5 376.99762 C 106.900002 373.622589 98.574997 368.983704 95 366.689026 C 91.425003 364.394318 86.025002 360.620667 83 358.303101 C 79.974998 355.985535 73.980591 350.951141 69.679085 347.11557 C 65.377586 343.280029 58.719982 336.622406 54.884422 332.320923 C 51.048859 328.019409 46.014477 322.024994 43.696907 319 C 41.379341 315.975006 37.604443 310.575012 35.308247 307 C 33.012051 303.424988 28.365376 295.100006 24.982298 288.5 C 21.59922 281.899994 17.216427 272 15.242756 266.5 C 13.269085 261 10.810349 253.350006 9.7789 249.5 C 8.747451 245.649994 7.6577 240.25 7.357231 237.5 C 7.056762 234.75 6.178466 231.081985 5.405462 229.348877 C 4.318735 226.912369 4 220.483322 4 201 C 4 181.516678 4.318735 175.087631 5.405462 172.651123 C 6.178466 170.918015 7.056762 167.25 7.357231 164.5 C 7.6577 161.75 8.747451 156.350006 9.7789 152.5 C 10.810349 148.649994 13.271301 141 15.247681 135.5 C 17.22406 130 21.372805 120.549988 24.467112 114.5 C 27.56142 108.450012 31.969294 100.350006 34.262386 96.5 C 36.555477 92.649994 39.797024 87.768127 41.46582 85.651367 C 43.134621 83.534607 48.40744 77.317047 53.183205 71.834564 C 57.958965 66.352081 66.352081 57.958954 71.834564 53.183197 C 77.317055 48.40744 83.534607 43.134613 85.65136 41.46582 C 87.768112 39.797028 92.650002 36.555481 96.5 34.26239 C 100.349998 31.969299 108.449997 27.561432 114.5 24.467102 C 120.550003 21.372803 130 17.22406 135.5 15.247681 C 141 13.271301 148.649994 10.810364 152.5 9.7789 C 156.350006 8.747437 161.75 7.657684 164.5 7.357239 C 167.25 7.056763 170.918015 6.178467 172.651123 5.405457 C 175.087631 4.318726 181.516678 4 201 4 C 220.483322 4 226.912369 4.318726 229.348877 5.405457 C 231.081985 6.178467 234.75 7.056763 237.5 7.357239 C 240.25 7.657684 245.649994 8.747437 249.5 9.7789 C 253.350006 10.810364 261 13.269073 266.5 15.242767 C 272 17.216431 281.899994 21.599213 288.5 24.9823 C 295.100006 28.365387 303.424988 33.01181 307 35.307739 C 310.575012 37.603668 315.405975 40.917358 317.735504 42.671539 C 320.065033 44.42569 326.052551 49.467194 331.041107 53.874878 C 336.029663 58.282532 343.717468 65.970337 348.125122 70.958893 C 352.532806 75.947449 357.57431 81.934967 359.328461 84.264496 C 361.082642 86.594025 364.396332 91.424988 366.692261 95 C 368.98819 98.575012 373.631378 106.899994 377.010468 113.5 C 380.389557 120.100006 384.940002 130.450012 387.122559 136.5 C 389.305115 142.549988 391.772034 150.425003 392.604584 154 C 393.437164 157.574997 394.352936 162.524994 394.639679 165 C 394.926392 167.475006 395.799774 171.196609 396.580505 173.270233 C 397.662109 176.14299 398 182.743866 398 201 C 398 219.256134 397.662109 225.85701 396.580505 228.729767 C 395.799774 230.803391 394.926392 234.524994 394.639679 237 C 394.352936 239.475006 393.437164 244.425003 392.604584 248 C 391.772034 251.574997 389.29834 259.450012 387.107513 265.5 C 384.916687 271.549988 380.236053 282.125 376.706116 289 C 373.176178 295.875 368.179382 304.649994 365.602142 308.5 C 363.024902 312.350006 359.697601 317.135956 358.20813 319.135437 C 356.718658 321.134949 352.125 326.570313 348 331.21405 C 343.875 335.857788 336.522614 343.221863 331.661346 347.578613 C 326.80011 351.935364 321.17511 356.718658 319.161346 358.20813 C 317.147614 359.697601 312.350006 363.025543 308.5 365.603577 C 304.649994 368.18161 295.875 373.189575 289 376.732391 C 282.125 380.275208 272 384.787537 266.5 386.759796 C 261 388.732056 253.350006 391.189636 249.5 392.2211 C 245.649994 393.252563 240.25 394.338531 237.5 394.634369 C 234.75 394.930206 230.803391 395.808502 228.729767 396.586151 C 225.84877 397.666534 219.24472 397.990753 200.729767 397.960846 Z M 285.5 308.5 C 285.25 294.549988 284.889343 287.125 284.537262 283 C 284.185181 278.875 283.268402 273.924988 282.5 272 C 281.731598 270.075012 280.868408 265.350006 280.581818 261.5 C 280.295227 257.649994 279.583405 250 279 244.5 C 278.416595 239 277.704773 231.350006 277.418182 227.5 C 277.131592 223.649994 276.267181 218.925003 275.497284 217 C 274.727356 215.074997 273.854065 210.125 273.55661 206 C 273.259155 201.875 272.587952 194.675003 272.065033 190 C 271.542145 185.324997 270.811554 179.419876 270.441467 176.877518 C 269.989197 173.770248 270.216309 171.32402 271.134308 169.414841 C 271.885437 167.852737 274.064056 165.521759 275.975708 164.234879 C 278.357635 162.631409 280.560486 161.99028 282.975708 162.197556 C 285.781281 162.438324 286.5 162.14296 286.5 160.749222 C 286.5 159.786301 283.575012 155.833389 280 151.964981 C 276.424988 148.096573 272.149994 143.143158 270.5 140.957367 C 268.850006 138.771576 263.899994 133.229401 259.5 128.641449 C 255.100006 124.053467 249.781097 118.207275 247.680237 115.649841 C 243.860458 111 243.860458 111 208.879196 111 C 173.897949 111 173.897949 111 172.39032 114.75 C 171.561111 116.8125 169.632217 120.975006 168.103882 124 C 166.575531 127.024994 163.82077 133.100006 161.982162 137.5 C 160.143555 141.899994 157.088364 148.639542 155.192856 152.476776 C 153.297333 156.313995 150.33696 160.863037 148.614258 162.585739 C 146.694183 164.505829 143.297531 166.352997 139.837112 167.358978 C 136.063843 168.455902 130.397827 169 122.748314 169 C 111.304443 169 111.304443 169 105.902222 174.858734 C 102.931 178.081055 97.574997 184.416656 94 188.937866 C 90.425003 193.459076 85.776382 199.124649 83.669746 201.52803 C 81.563103 203.931396 79.622307 206.728287 79.356865 207.743332 C 79.091431 208.758377 79.853691 212.268875 81.050781 215.544434 C 82.247871 218.819992 83.861542 222.512497 84.636711 223.75 C 86.046104 226 86.046104 226 117.273056 226.021301 C 148.5 226.042587 148.5 226.042587 156.5 228.816376 C 160.899994 230.341949 170.852432 234.850739 178.616531 238.835892 C 191.425217 245.410324 192.895874 246.442688 194.490479 249.978882 C 195.485519 252.185471 195.991241 254.898743 195.656265 256.233398 C 195.330872 257.529907 194.037598 259.552795 192.782318 260.728699 C 191.527039 261.904663 189.303131 263.32016 187.840286 263.874329 C 185.512711 264.756042 183.265076 263.921387 169.842072 257.190918 C 154.503586 249.5 154.503586 249.5 120.001793 249.215942 C 85.5 248.9319 85.5 248.9319 79.5 245.891891 C 76.199997 244.219879 72.055077 241.197708 70.289063 239.175934 C 68.466545 237.089478 65.088737 230.527374 62.477345 224 C 59.946911 217.675003 57.022274 210.699997 55.978149 208.5 C 54.934025 206.300003 52.738037 200.899994 51.098179 196.5 C 49.458321 192.100006 46.436535 184.225006 44.383102 179 C 42.32967 173.774994 40.469467 168.149994 40.249321 166.5 C 39.988277 164.543503 40.744091 161.90242 42.422241 158.907059 C 43.837494 156.380936 45.783958 153.61879 46.747715 152.768951 C 47.711472 151.919113 50.761894 150.053879 53.526432 148.623993 C 58.552868 146.024185 58.552868 146.024185 97.026436 145.7621 L 135.5 145.5 L 139.198761 138.5 C 141.233078 134.649994 143.635681 129.25 144.537888 126.5 C 145.440079 123.75 147.046738 120.082977 148.1082 118.351105 C 149.169678 116.619202 150.916245 112.649994 151.989456 109.53067 C 153.062668 106.411316 155.085861 102.428345 156.485443 100.679565 C 157.88504 98.930817 159.539185 96.886017 160.161346 96.13562 C 160.783508 95.385223 163.139221 93.932587 165.396271 92.907593 C 169.167145 91.195099 172.592255 91.042145 207.624268 91.021973 C 239.422897 91.003632 246.474579 91.255402 250.124268 92.539215 C 252.65802 93.430481 256.752869 96.271912 259.851837 99.289215 C 262.795319 102.155151 266.92276 106.75 269.023865 109.5 C 271.124969 112.25 275.69165 117.420349 279.172028 120.989685 C 282.652405 124.55899 287.524994 130.073456 290 133.24408 C 292.475006 136.414673 297.326996 142.044312 300.782196 145.754395 C 304.237427 149.464478 311.327271 157.110153 316.537415 162.744781 C 321.747589 168.37941 330.463776 177.154404 335.906769 182.244781 C 341.349731 187.335144 350.972931 196.225006 357.291656 202 C 363.610382 207.774994 370.210358 213.346832 371.958282 214.381851 C 374.075562 215.63559 375.469849 215.930145 376.13562 215.264374 C 376.762329 214.637665 376.952209 207.969849 376.644836 197.382523 C 376.375244 188.097137 375.711731 177.574997 375.170319 174 C 374.628937 170.425003 373.657837 165.475006 373.01236 163 C 372.366882 160.524994 370.888672 154.908554 369.727509 150.519028 C 368.566315 146.129486 367.093689 141.40448 366.455017 140.019012 C 365.816315 138.633575 364.349762 135.024994 363.195984 132 C 362.042206 128.975006 358.938629 122.321442 356.299103 117.214294 C 353.659607 112.107178 348.596069 103.782166 345.046814 98.714294 C 341.429871 93.549835 332.859344 83.765747 325.546814 76.453186 C 318.234253 69.140656 308.450165 60.570129 303.285706 56.953186 C 298.217834 53.403931 289.892822 48.340393 284.785706 45.700897 C 279.678558 43.061371 273.024994 39.957794 270 38.804016 C 266.975006 37.650238 263.366425 36.183685 261.980988 35.544983 C 260.59552 34.906311 255.870514 33.433685 251.480972 32.272491 C 247.091446 31.111328 241.475006 29.638885 239 29.000427 C 236.524994 28.362 231.574997 27.345764 228 26.742157 C 224.425003 26.13858 212.274994 25.644714 201 25.644714 C 189.725006 25.644714 177.574997 26.13858 174 26.742157 C 170.425003 27.345764 165.475006 28.362 163 29.000427 C 160.524994 29.638885 154.908554 31.111328 150.519028 32.272491 C 146.129486 33.433685 141.404495 34.906311 140.019028 35.544983 C 138.63356 36.183685 135.024994 37.650238 132 38.804016 C 128.975006 39.957794 122.321434 43.061371 117.214302 45.700897 C 112.107162 48.340393 103.782166 53.403931 98.714302 56.953186 C 93.54982 60.570129 83.765739 69.140656 76.453194 76.453186 C 69.140656 83.765747 60.570118 93.549835 56.953197 98.714294 C 53.403938 103.782166 48.340401 112.107178 45.700893 117.214294 C 43.061382 122.321442 39.95779 128.975006 38.804016 132 C 37.650246 135.024994 36.183685 138.633575 35.544994 140.019012 C 34.906303 141.40448 33.433681 146.129486 32.272499 150.519028 C 31.111315 154.908554 29.638887 160.524994 29.000437 163 C 28.361986 165.475006 27.345993 170.425003 26.742676 174 C 26.139359 177.574997 25.650564 189.5 25.656467 200.5 C 25.662371 211.5 26.153543 223.649994 26.747965 227.5 C 27.342386 231.350006 28.35355 236.524994 28.994993 239 C 29.636436 241.475006 31.111315 247.091446 32.272499 251.480972 C 33.433681 255.870514 34.906303 260.59552 35.544994 261.980957 C 36.183685 263.366455 37.650246 266.975006 38.804016 270 C 39.95779 273.024994 43.061382 279.678558 45.700893 284.785706 C 48.340401 289.892822 53.403938 298.217834 56.953197 303.285706 C 60.570118 308.450195 69.140656 318.234253 76.453194 325.546814 C 83.765739 332.859344 93.54982 341.429871 98.714302 345.046814 C 103.782166 348.596069 112.107162 353.659607 117.214302 356.299103 C 122.321434 358.938629 128.975006 362.042206 132 363.195984 C 135.024994 364.349762 138.63356 365.816315 140.019028 366.455017 C 141.404495 367.093689 146.129486 368.566315 150.519028 369.727509 C 154.908554 370.888672 160.524994 372.373444 163 373.026947 C 165.475006 373.68045 169.75 374.418549 172.5 374.667114 C 175.25 374.91571 178.625 375.52002 180 376.010071 C 181.375 376.500092 191.274994 376.737061 202 376.536621 C 212.725006 376.336212 224.425003 375.725342 228 375.179108 C 231.574997 374.632874 236.524994 373.657837 239 373.01236 C 241.475006 372.366882 247.091446 370.888672 251.480972 369.727509 C 255.870514 368.566315 260.59552 367.092438 261.980988 366.452209 C 263.366425 365.811951 266.75473 364.435791 269.510498 363.394073 C 272.266266 362.352325 278.43338 359.515228 283.215149 357.089386 C 287.996918 354.663544 292.164581 352.013489 292.476593 351.200409 C 292.788605 350.387329 292.106049 347.784821 290.959839 345.417053 C 288.875824 341.112 288.875824 341.112 291.1716 337.123016 C 292.434265 334.929077 293.226746 332.893402 292.932648 332.599304 C 292.63858 332.305237 273.745911 331.937561 250.948975 331.782318 C 209.5 331.5 209.5 331.5 203.5 328.5 C 198.433334 325.966675 197.111115 324.722229 195 320.5 C 193.217407 316.934814 192.510483 313.921692 192.536514 310 C 192.556595 306.975006 193.165558 301.125 193.889755 297 C 194.613953 292.875 195.813965 287.475006 196.556458 285 C 197.298935 282.524994 198.377472 277.6875 198.953217 274.25 C 199.528946 270.8125 200.467499 265.1875 201.038879 261.75 C 201.61026 258.3125 202.708054 253.25 203.478394 250.5 C 204.248749 247.75 205.356247 242.6875 205.939514 239.25 C 206.522781 235.8125 207.467499 230.1875 208.038879 226.75 C 208.61026 223.3125 209.708054 218.25 210.478394 215.5 C 211.248749 212.75 212.33931 207.800003 212.901871 204.5 C 213.464447 201.199997 214.414703 195.350006 215.01355 191.5 C 215.612411 187.649994 216.774826 182.25 217.596695 179.5 C 218.418564 176.75 219.767441 172.627594 220.594177 170.339096 C 221.798462 167.005554 222.878799 165.86554 226.027344 164.605743 C 228.677322 163.545425 230.697083 163.316177 232.228653 163.901871 C 233.47789 164.379608 235.399994 165.768585 236.5 166.98851 C 238.085571 168.746933 238.493622 170.583847 238.469223 175.853271 C 238.452301 179.508972 237.851151 185.649994 237.133331 189.5 C 236.415527 193.350006 235.5 198.524994 235.098846 201 C 234.697693 203.475006 233.856827 207.074997 233.230255 209 C 232.603683 210.925003 231.59993 215.425003 230.99968 219 C 230.399429 222.574997 229.460464 227.975006 228.913086 231 C 228.365707 234.024994 227.458801 238.300003 226.89772 240.5 C 226.336639 242.699997 225.434677 246.75 224.893356 249.5 C 224.352036 252.25 223.479568 257.087494 222.954559 260.25 C 222.42955 263.412506 221.593063 268.637146 221.095688 271.860352 C 220.598328 275.083527 219.718369 278.571014 219.140244 279.610352 C 218.562103 280.649658 217.881012 283.075012 217.626694 285 C 217.372375 286.924988 216.634308 291.649994 215.986542 295.5 C 215.338776 299.350006 214.739304 303.850006 214.654388 305.5 C 214.5 308.5 214.5 308.5 250 308.5 L 285.5 308.5 Z M 312.273102 336.746613 C 314.576874 336.408478 318.169769 333.3815 326.928741 324.399353 C 333.31076 317.854706 341.450104 308.353577 345.016205 303.285706 C 348.582275 298.217834 353.659607 289.892822 356.299103 284.785706 C 358.938629 279.678558 362.046234 273.024994 363.204895 270 C 364.363556 266.975006 365.890564 263.149994 366.598206 261.5 C 367.305878 259.850006 368.865967 255.200104 370.065063 251.166885 C 371.769531 245.43399 372.010223 243.317825 371.16803 241.469406 C 370.575531 240.169022 367.257813 236.864639 363.79538 234.126358 C 360.332916 231.388092 355.024994 226.606216 352 223.5 C 348.975006 220.393784 343.575012 215.566818 340 212.773422 C 336.424988 209.980042 331.024994 205.221359 328 202.198608 C 324.975006 199.175842 319.681427 194.43396 316.236542 191.661102 C 312.791626 188.888245 309.146881 185.242645 308.137085 183.559769 C 307.127319 181.876892 303.565033 177.800003 300.220886 174.5 C 296.87677 171.199997 293.372986 168.342758 292.434753 168.150558 C 291.031219 167.863068 290.845734 168.306229 291.388275 170.650558 C 291.750977 172.217758 292.477631 177.550003 293.003052 182.5 C 293.528503 187.449997 294.437866 195.550003 295.023926 200.5 C 295.609955 205.449997 296.32666 212.649994 296.616638 216.5 C 296.906616 220.350006 297.74295 224.850006 298.475159 226.5 C 299.207397 228.149994 300.056244 233.100006 300.361481 237.5 C 300.666748 241.899994 301.414185 250 302.022461 255.5 C 302.630768 261 303.332092 268.200012 303.580994 271.5 C 303.829895 274.799988 304.695648 279.75 305.504913 282.5 C 306.314178 285.25 307.229492 290.649994 307.538971 294.5 C 307.84845 298.350006 308.35022 303.945221 308.654022 306.933838 C 308.957855 309.922455 308.689667 314.092407 308.058105 316.200409 C 307.426514 318.308411 305.580078 321.547607 303.954895 323.39859 C 302.329712 325.249573 301 327.439758 301 328.265656 C 301 329.091553 302.849762 331.438416 305.110565 333.480896 C 308.422272 336.47287 309.814209 337.107483 312.273102 336.746613 Z M 71.884117 183.062012 C 72.867729 182.535599 75.348373 180.249908 77.39666 177.982712 C 79.795692 175.327255 81.010368 173.084732 80.81041 171.680252 C 80.523026 169.661713 79.944725 169.5 73.013695 169.5 C 66.524979 169.5 65.479919 169.746506 65.171143 171.349869 C 64.975197 172.367294 65.087135 174.650955 65.419891 176.424667 C 65.75264 178.19838 66.940826 180.632736 68.06031 181.834366 C 69.603554 183.490845 70.528175 183.787689 71.884117 183.062012 Z"/>
    <path id="Oval" fill="#ffffff" fill-rule="evenodd" stroke="none" d="M 210 137 C 210 129.820313 201.71727 124 191.5 124 C 181.28273 124 173 129.820313 173 137 C 173 144.179703 181.28273 150 191.5 150 C 201.71727 150 210 144.179703 210 137 Z"/>
</svg>
